<svg xmlns="http://www.w3.org/2000/svg" width="78" height="78" viewBox="0 0 78 78"><title>mod_exelearning</title><path fill="#000" d="M14.15796 1.4759c3.23902 0 6.69921 1.17785 10.37991 3.53356 3.60737 2.28208 8.57643 6.33101 14.90725 12.14672 10.89509-9.12847 16.7068-11.18464 22.3014-11.18464 3.60741 0 6.69918 0.99379 9.2756 2.9814 4.7466 3.62959 5.53815 11.91867 2.21288 17.36844-2.65005 4.34336-6.11021 9.01799-10.37983 14.02379C72.57249 51.38751 78 59.33299 78 64.78072c0 3.90153-1.21474 6.88305-3.64399 8.94425-2.50288 2.06113-5.63161 3.09177-9.38589 3.09177-5.66858 0-14.55632-4.3011-25.525-13.50316-6.25716 5.52102-11.18963 9.34927-14.79666 11.48406C20.96742 76.93239 17.4706 78 14.15796 78c-4.41691 0-7.8401-1.43566-10.26939-4.30655-2.50292-2.94489-3.75443-6.40475-3.75443-10.37987 0-2.5768 0.36775-4.82184 1.10423-6.73613 0.73618-1.91396 2.09809-4.04871 4.08571-6.40441 1.98765-2.42956 5.15312-5.77879 9.49644-10.04871-4.19607-4.26962-7.28791-7.69285-9.2756-10.26939-2.06124-2.65017-3.45993-4.9691-4.19611-6.95675-0.8098-1.98762-1.21466-4.19611-1.21466-6.62544 0-2.57662 0.55208-4.96906 1.65638-7.17759 1.10426-2.28212 2.72375-4.12248 4.85866-5.52117 2.13487-1.39873 4.63782-2.09809 7.50879-2.09809"/></svg>
